<svg xmlns="http://www.w3.org/2000/svg" viewBox="0 0 32 31" shape-rendering="crispEdges">
<rect x="1" y="0" width="1" height="1" fill="#212228"/>
<rect x="2" y="0" width="1" height="1" fill="#1e1f23"/>
<rect x="3" y="0" width="1" height="1" fill="#1d1e22"/>
<rect x="4" y="0" width="1" height="1" fill="#1c1d21"/>
<rect x="5" y="0" width="1" height="1" fill="#1e2025"/>
<rect x="15" y="0" width="1" height="1" fill="#1e1e26"/>
<rect x="16" y="0" width="1" height="1" fill="#201f25"/>
<rect x="17" y="0" width="1" height="1" fill="#1d1d23"/>
<rect x="18" y="0" width="1" height="1" fill="#202020"/>
<rect x="0" y="1" width="1" height="1" fill="#212121"/>
<rect x="1" y="1" width="1" height="1" fill="#616262"/>
<rect x="2" y="1" width="1" height="1" fill="#828283"/>
<rect x="3" y="1" width="1" height="1" fill="#878787"/>
<rect x="4" y="1" width="1" height="1" fill="#878787"/>
<rect x="5" y="1" width="1" height="1" fill="#8b8b8b"/>
<rect x="6" y="1" width="1" height="1" fill="#505050"/>
<rect x="8" y="1" width="1" height="1" fill="#000000"/>
<rect x="9" y="1" width="1" height="1" fill="#000000"/>
<rect x="10" y="1" width="1" height="1" fill="#000000"/>
<rect x="11" y="1" width="1" height="1" fill="#000000"/>
<rect x="12" y="1" width="1" height="1" fill="#000000"/>
<rect x="13" y="1" width="1" height="1" fill="#000000"/>
<rect x="14" y="1" width="1" height="1" fill="#000000"/>
<rect x="15" y="1" width="1" height="1" fill="#858486"/>
<rect x="16" y="1" width="1" height="1" fill="#89898b"/>
<rect x="17" y="1" width="1" height="1" fill="#818180"/>
<rect x="18" y="1" width="1" height="1" fill="#5c5c5f"/>
<rect x="19" y="1" width="1" height="1" fill="#242424"/>
<rect x="0" y="2" width="1" height="1" fill="#1e1f24"/>
<rect x="1" y="2" width="1" height="1" fill="#a5a5a5"/>
<rect x="2" y="2" width="1" height="1" fill="#a8a6a7"/>
<rect x="3" y="2" width="1" height="1" fill="#a9a7a8"/>
<rect x="4" y="2" width="1" height="1" fill="#aba9aa"/>
<rect x="5" y="2" width="1" height="1" fill="#aba9aa"/>
<rect x="6" y="2" width="1" height="1" fill="#030305"/>
<rect x="7" y="2" width="1" height="1" fill="#1d1e23"/>
<rect x="8" y="2" width="1" height="1" fill="#1c1d22"/>
<rect x="9" y="2" width="1" height="1" fill="#1d1e23"/>
<rect x="10" y="2" width="1" height="1" fill="#1d1e22"/>
<rect x="11" y="2" width="1" height="1" fill="#1d1e22"/>
<rect x="12" y="2" width="1" height="1" fill="#1e1f22"/>
<rect x="13" y="2" width="1" height="1" fill="#1b1c20"/>
<rect x="14" y="2" width="1" height="1" fill="#1f2023"/>
<rect x="15" y="2" width="1" height="1" fill="#acaaab"/>
<rect x="16" y="2" width="1" height="1" fill="#a9a7a8"/>
<rect x="17" y="2" width="1" height="1" fill="#a9a7a8"/>
<rect x="18" y="2" width="1" height="1" fill="#464748"/>
<rect x="19" y="2" width="1" height="1" fill="#191a1f"/>
<rect x="0" y="3" width="1" height="1" fill="#aaa8a9"/>
<rect x="1" y="3" width="1" height="1" fill="#a9a7a8"/>
<rect x="2" y="3" width="1" height="1" fill="#acaaab"/>
<rect x="3" y="3" width="1" height="1" fill="#777370"/>
<rect x="4" y="3" width="1" height="1" fill="#afaeab"/>
<rect x="5" y="3" width="1" height="1" fill="#aaa8a9"/>
<rect x="6" y="3" width="1" height="1" fill="#adabac"/>
<rect x="7" y="3" width="1" height="1" fill="#aaa8a9"/>
<rect x="8" y="3" width="1" height="1" fill="#acaaab"/>
<rect x="9" y="3" width="1" height="1" fill="#adabac"/>
<rect x="10" y="3" width="1" height="1" fill="#acaaab"/>
<rect x="11" y="3" width="1" height="1" fill="#acaaab"/>
<rect x="12" y="3" width="1" height="1" fill="#aba9aa"/>
<rect x="13" y="3" width="1" height="1" fill="#aba9aa"/>
<rect x="14" y="3" width="1" height="1" fill="#a8a5a6"/>
<rect x="15" y="3" width="1" height="1" fill="#1a1d22"/>
<rect x="16" y="3" width="1" height="1" fill="#797876"/>
<rect x="17" y="3" width="1" height="1" fill="#aba8a9"/>
<rect x="18" y="3" width="1" height="1" fill="#a8a6a7"/>
<rect x="19" y="3" width="1" height="1" fill="#acaaab"/>
<rect x="20" y="3" width="1" height="1" fill="#1b1c20"/>
<rect x="21" y="3" width="1" height="1" fill="#202223"/>
<rect x="0" y="4" width="1" height="1" fill="#a9a7a8"/>
<rect x="1" y="4" width="1" height="1" fill="#abaaa8"/>
<rect x="2" y="4" width="1" height="1" fill="#aaa5a3"/>
<rect x="3" y="4" width="1" height="1" fill="#848382"/>
<rect x="4" y="4" width="1" height="1" fill="#a6a4a4"/>
<rect x="5" y="4" width="1" height="1" fill="#acaaab"/>
<rect x="6" y="4" width="1" height="1" fill="#acaaab"/>
<rect x="7" y="4" width="1" height="1" fill="#aeacad"/>
<rect x="8" y="4" width="1" height="1" fill="#aeacad"/>
<rect x="9" y="4" width="1" height="1" fill="#adabac"/>
<rect x="10" y="4" width="1" height="1" fill="#aeacad"/>
<rect x="11" y="4" width="1" height="1" fill="#aeacad"/>
<rect x="12" y="4" width="1" height="1" fill="#adabac"/>
<rect x="13" y="4" width="1" height="1" fill="#adabac"/>
<rect x="14" y="4" width="1" height="1" fill="#acaaab"/>
<rect x="15" y="4" width="1" height="1" fill="#8d8c8d"/>
<rect x="16" y="4" width="1" height="1" fill="#908d8e"/>
<rect x="17" y="4" width="1" height="1" fill="#c8c7c6"/>
<rect x="18" y="4" width="1" height="1" fill="#a5a3a4"/>
<rect x="19" y="4" width="1" height="1" fill="#aaa8a9"/>
<rect x="20" y="4" width="1" height="1" fill="#1d1e22"/>
<rect x="21" y="4" width="1" height="1" fill="#1f1f21"/>
<rect x="0" y="5" width="1" height="1" fill="#a7a5a6"/>
<rect x="1" y="5" width="1" height="1" fill="#7d7d7a"/>
<rect x="2" y="5" width="1" height="1" fill="#7d7977"/>
<rect x="3" y="5" width="1" height="1" fill="#18191d"/>
<rect x="4" y="5" width="1" height="1" fill="#acaaab"/>
<rect x="5" y="5" width="1" height="1" fill="#acaaab"/>
<rect x="6" y="5" width="1" height="1" fill="#adabac"/>
<rect x="7" y="5" width="1" height="1" fill="#afadae"/>
<rect x="8" y="5" width="1" height="1" fill="#afadae"/>
<rect x="9" y="5" width="1" height="1" fill="#afadae"/>
<rect x="10" y="5" width="1" height="1" fill="#afadae"/>
<rect x="11" y="5" width="1" height="1" fill="#aeacad"/>
<rect x="12" y="5" width="1" height="1" fill="#adabac"/>
<rect x="13" y="5" width="1" height="1" fill="#aeacad"/>
<rect x="14" y="5" width="1" height="1" fill="#acaaab"/>
<rect x="15" y="5" width="1" height="1" fill="#aca7a9"/>
<rect x="16" y="5" width="1" height="1" fill="#1b1c20"/>
<rect x="17" y="5" width="1" height="1" fill="#202125"/>
<rect x="18" y="5" width="1" height="1" fill="#b7b6b7"/>
<rect x="19" y="5" width="1" height="1" fill="#aba9aa"/>
<rect x="20" y="5" width="1" height="1" fill="#1f2024"/>
<rect x="21" y="5" width="1" height="1" fill="#252628"/>
<rect x="0" y="6" width="1" height="1" fill="#020202"/>
<rect x="3" y="6" width="1" height="1" fill="#1d1e23"/>
<rect x="4" y="6" width="1" height="1" fill="#abaaab"/>
<rect x="5" y="6" width="1" height="1" fill="#acaaab"/>
<rect x="6" y="6" width="1" height="1" fill="#aeacad"/>
<rect x="7" y="6" width="1" height="1" fill="#aeacad"/>
<rect x="8" y="6" width="1" height="1" fill="#afadae"/>
<rect x="9" y="6" width="1" height="1" fill="#b0aeaf"/>
<rect x="10" y="6" width="1" height="1" fill="#afadae"/>
<rect x="11" y="6" width="1" height="1" fill="#afadae"/>
<rect x="12" y="6" width="1" height="1" fill="#aeacad"/>
<rect x="13" y="6" width="1" height="1" fill="#adabac"/>
<rect x="14" y="6" width="1" height="1" fill="#adabac"/>
<rect x="15" y="6" width="1" height="1" fill="#adabac"/>
<rect x="16" y="6" width="1" height="1" fill="#aba9aa"/>
<rect x="17" y="6" width="1" height="1" fill="#000002"/>
<rect x="18" y="6" width="1" height="1" fill="#25262a"/>
<rect x="19" y="6" width="1" height="1" fill="#232325"/>
<rect x="20" y="6" width="1" height="1" fill="#1c1d21"/>
<rect x="21" y="6" width="1" height="1" fill="#17181b"/>
<rect x="29" y="6" width="1" height="1" fill="#1a1b1f"/>
<rect x="30" y="6" width="1" height="1" fill="#1f2124"/>
<rect x="0" y="7" width="1" height="1" fill="#242529"/>
<rect x="3" y="7" width="1" height="1" fill="#1b1c20"/>
<rect x="4" y="7" width="1" height="1" fill="#abaaab"/>
<rect x="5" y="7" width="1" height="1" fill="#acaaab"/>
<rect x="6" y="7" width="1" height="1" fill="#adabac"/>
<rect x="7" y="7" width="1" height="1" fill="#aeacad"/>
<rect x="8" y="7" width="1" height="1" fill="#aeacad"/>
<rect x="9" y="7" width="1" height="1" fill="#b0aeaf"/>
<rect x="10" y="7" width="1" height="1" fill="#b0aeaf"/>
<rect x="11" y="7" width="1" height="1" fill="#b0aeaf"/>
<rect x="12" y="7" width="1" height="1" fill="#afadae"/>
<rect x="13" y="7" width="1" height="1" fill="#adabac"/>
<rect x="14" y="7" width="1" height="1" fill="#adabac"/>
<rect x="15" y="7" width="1" height="1" fill="#acaaab"/>
<rect x="16" y="7" width="1" height="1" fill="#acaaab"/>
<rect x="17" y="7" width="1" height="1" fill="#010103"/>
<rect x="18" y="7" width="1" height="1" fill="#191a1e"/>
<rect x="19" y="7" width="1" height="1" fill="#222327"/>
<rect x="20" y="7" width="1" height="1" fill="#1f1f23"/>
<rect x="21" y="7" width="1" height="1" fill="#050609"/>
<rect x="29" y="7" width="1" height="1" fill="#111217"/>
<rect x="30" y="7" width="1" height="1" fill="#191a1c"/>
<rect x="3" y="8" width="1" height="1" fill="#1a1b1f"/>
<rect x="4" y="8" width="1" height="1" fill="#aaa9aa"/>
<rect x="5" y="8" width="1" height="1" fill="#aba9aa"/>
<rect x="6" y="8" width="1" height="1" fill="#adabac"/>
<rect x="7" y="8" width="1" height="1" fill="#adabac"/>
<rect x="8" y="8" width="1" height="1" fill="#aeacad"/>
<rect x="9" y="8" width="1" height="1" fill="#aeacad"/>
<rect x="10" y="8" width="1" height="1" fill="#afadae"/>
<rect x="11" y="8" width="1" height="1" fill="#afadae"/>
<rect x="12" y="8" width="1" height="1" fill="#aeacad"/>
<rect x="13" y="8" width="1" height="1" fill="#aeacad"/>
<rect x="14" y="8" width="1" height="1" fill="#aeacad"/>
<rect x="15" y="8" width="1" height="1" fill="#acaaab"/>
<rect x="16" y="8" width="1" height="1" fill="#aba9aa"/>
<rect x="17" y="8" width="1" height="1" fill="#121316"/>
<rect x="18" y="8" width="1" height="1" fill="#1d1e22"/>
<rect x="28" y="8" width="1" height="1" fill="#1b1c20"/>
<rect x="29" y="8" width="1" height="1" fill="#a3a2a3"/>
<rect x="30" y="8" width="1" height="1" fill="#aaa8a8"/>
<rect x="31" y="8" width="1" height="1" fill="#1c1e24"/>
<rect x="1" y="9" width="1" height="1" fill="#3a3a40"/>
<rect x="2" y="9" width="1" height="1" fill="#202040"/>
<rect x="3" y="9" width="1" height="1" fill="#1b1c20"/>
<rect x="4" y="9" width="1" height="1" fill="#a6a4a5"/>
<rect x="5" y="9" width="1" height="1" fill="#adabac"/>
<rect x="6" y="9" width="1" height="1" fill="#adabac"/>
<rect x="7" y="9" width="1" height="1" fill="#adabac"/>
<rect x="8" y="9" width="1" height="1" fill="#afadae"/>
<rect x="9" y="9" width="1" height="1" fill="#acaaab"/>
<rect x="10" y="9" width="1" height="1" fill="#505152"/>
<rect x="11" y="9" width="1" height="1" fill="#0a0a0a"/>
<rect x="12" y="9" width="1" height="1" fill="#a7a6a6"/>
<rect x="13" y="9" width="1" height="1" fill="#adabac"/>
<rect x="14" y="9" width="1" height="1" fill="#adabac"/>
<rect x="15" y="9" width="1" height="1" fill="#adabac"/>
<rect x="16" y="9" width="1" height="1" fill="#aba9aa"/>
<rect x="17" y="9" width="1" height="1" fill="#111112"/>
<rect x="18" y="9" width="1" height="1" fill="#1c1d21"/>
<rect x="28" y="9" width="1" height="1" fill="#17181c"/>
<rect x="29" y="9" width="1" height="1" fill="#9e9c9d"/>
<rect x="30" y="9" width="1" height="1" fill="#aeacad"/>
<rect x="31" y="9" width="1" height="1" fill="#191a1e"/>
<rect x="1" y="10" width="1" height="1" fill="#47484b"/>
<rect x="2" y="10" width="1" height="1" fill="#1a1b1f"/>
<rect x="3" y="10" width="1" height="1" fill="#1c1d21"/>
<rect x="4" y="10" width="1" height="1" fill="#aeaeab"/>
<rect x="5" y="10" width="1" height="1" fill="#aba9aa"/>
<rect x="6" y="10" width="1" height="1" fill="#adabac"/>
<rect x="7" y="10" width="1" height="1" fill="#aeacad"/>
<rect x="8" y="10" width="1" height="1" fill="#adabac"/>
<rect x="9" y="10" width="1" height="1" fill="#adacaa"/>
<rect x="10" y="10" width="1" height="1" fill="#3d3d3f"/>
<rect x="11" y="10" width="1" height="1" fill="#1a1b1e"/>
<rect x="12" y="10" width="1" height="1" fill="#ababab"/>
<rect x="13" y="10" width="1" height="1" fill="#acaaab"/>
<rect x="14" y="10" width="1" height="1" fill="#acaaab"/>
<rect x="15" y="10" width="1" height="1" fill="#adabac"/>
<rect x="16" y="10" width="1" height="1" fill="#acaaab"/>
<rect x="17" y="10" width="1" height="1" fill="#171719"/>
<rect x="18" y="10" width="1" height="1" fill="#1d1e22"/>
<rect x="28" y="10" width="1" height="1" fill="#191a1e"/>
<rect x="29" y="10" width="1" height="1" fill="#aaa7a9"/>
<rect x="30" y="10" width="1" height="1" fill="#a5a3a4"/>
<rect x="31" y="10" width="1" height="1" fill="#1b1c20"/>
<rect x="0" y="11" width="1" height="1" fill="#1b1c21"/>
<rect x="1" y="11" width="1" height="1" fill="#d1d1d1"/>
<rect x="2" y="11" width="1" height="1" fill="#a5a3a4"/>
<rect x="3" y="11" width="1" height="1" fill="#aba8a9"/>
<rect x="4" y="11" width="1" height="1" fill="#aba9aa"/>
<rect x="5" y="11" width="1" height="1" fill="#acaaab"/>
<rect x="6" y="11" width="1" height="1" fill="#acaaab"/>
<rect x="7" y="11" width="1" height="1" fill="#adabac"/>
<rect x="8" y="11" width="1" height="1" fill="#aeacad"/>
<rect x="9" y="11" width="1" height="1" fill="#adabac"/>
<rect x="10" y="11" width="1" height="1" fill="#424244"/>
<rect x="11" y="11" width="1" height="1" fill="#1c1d21"/>
<rect x="12" y="11" width="1" height="1" fill="#a3a2a4"/>
<rect x="13" y="11" width="1" height="1" fill="#afadae"/>
<rect x="14" y="11" width="1" height="1" fill="#adabac"/>
<rect x="15" y="11" width="1" height="1" fill="#aba9aa"/>
<rect x="16" y="11" width="1" height="1" fill="#aba9aa"/>
<rect x="17" y="11" width="1" height="1" fill="#1d1d1f"/>
<rect x="18" y="11" width="1" height="1" fill="#1b1c20"/>
<rect x="26" y="11" width="1" height="1" fill="#444548"/>
<rect x="27" y="11" width="1" height="1" fill="#1c1d21"/>
<rect x="28" y="11" width="1" height="1" fill="#acaaac"/>
<rect x="29" y="11" width="1" height="1" fill="#aaa8a9"/>
<rect x="30" y="11" width="1" height="1" fill="#adabac"/>
<rect x="31" y="11" width="1" height="1" fill="#1a1b1f"/>
<rect x="0" y="12" width="1" height="1" fill="#1f2024"/>
<rect x="1" y="12" width="1" height="1" fill="#bbb9ba"/>
<rect x="2" y="12" width="1" height="1" fill="#a5a3a4"/>
<rect x="3" y="12" width="1" height="1" fill="#111314"/>
<rect x="4" y="12" width="1" height="1" fill="#0b0b0c"/>
<rect x="5" y="12" width="1" height="1" fill="#0d0d0d"/>
<rect x="6" y="12" width="1" height="1" fill="#100f11"/>
<rect x="7" y="12" width="1" height="1" fill="#bdbdbd"/>
<rect x="8" y="12" width="1" height="1" fill="#aeacad"/>
<rect x="9" y="12" width="1" height="1" fill="#adabac"/>
<rect x="10" y="12" width="1" height="1" fill="#3a3839"/>
<rect x="11" y="12" width="1" height="1" fill="#191b1b"/>
<rect x="12" y="12" width="1" height="1" fill="#acacac"/>
<rect x="13" y="12" width="1" height="1" fill="#acaaab"/>
<rect x="14" y="12" width="1" height="1" fill="#adabac"/>
<rect x="15" y="12" width="1" height="1" fill="#acaaab"/>
<rect x="16" y="12" width="1" height="1" fill="#aaa8a9"/>
<rect x="17" y="12" width="1" height="1" fill="#19191c"/>
<rect x="18" y="12" width="1" height="1" fill="#1c1d1f"/>
<rect x="26" y="12" width="1" height="1" fill="#4e4e4e"/>
<rect x="27" y="12" width="1" height="1" fill="#0b0a0c"/>
<rect x="28" y="12" width="1" height="1" fill="#a4a2a3"/>
<rect x="29" y="12" width="1" height="1" fill="#a9a7a7"/>
<rect x="30" y="12" width="1" height="1" fill="#a8a5a4"/>
<rect x="31" y="12" width="1" height="1" fill="#1b1d22"/>
<rect x="0" y="13" width="1" height="1" fill="#1e1f23"/>
<rect x="1" y="13" width="1" height="1" fill="#b1b0ae"/>
<rect x="2" y="13" width="1" height="1" fill="#a7a5a6"/>
<rect x="3" y="13" width="1" height="1" fill="#18191f"/>
<rect x="4" y="13" width="1" height="1" fill="#1a1b20"/>
<rect x="5" y="13" width="1" height="1" fill="#1a1b20"/>
<rect x="6" y="13" width="1" height="1" fill="#18191e"/>
<rect x="7" y="13" width="1" height="1" fill="#b5b5b5"/>
<rect x="8" y="13" width="1" height="1" fill="#afadae"/>
<rect x="9" y="13" width="1" height="1" fill="#adabac"/>
<rect x="10" y="13" width="1" height="1" fill="#adabac"/>
<rect x="11" y="13" width="1" height="1" fill="#aba9aa"/>
<rect x="12" y="13" width="1" height="1" fill="#adabac"/>
<rect x="13" y="13" width="1" height="1" fill="#adabac"/>
<rect x="14" y="13" width="1" height="1" fill="#acaaab"/>
<rect x="15" y="13" width="1" height="1" fill="#aeacad"/>
<rect x="16" y="13" width="1" height="1" fill="#acaaab"/>
<rect x="17" y="13" width="1" height="1" fill="#222225"/>
<rect x="18" y="13" width="1" height="1" fill="#1b1c21"/>
<rect x="19" y="13" width="1" height="1" fill="#1e1f24"/>
<rect x="20" y="13" width="1" height="1" fill="#1d1e22"/>
<rect x="21" y="13" width="1" height="1" fill="#1e1f23"/>
<rect x="22" y="13" width="1" height="1" fill="#1d1e22"/>
<rect x="23" y="13" width="1" height="1" fill="#1e1f23"/>
<rect x="24" y="13" width="1" height="1" fill="#1d1e22"/>
<rect x="25" y="13" width="1" height="1" fill="#1c1d21"/>
<rect x="26" y="13" width="1" height="1" fill="#bdbbbc"/>
<rect x="27" y="13" width="1" height="1" fill="#a5a2a3"/>
<rect x="28" y="13" width="1" height="1" fill="#888482"/>
<rect x="29" y="13" width="1" height="1" fill="#1f2024"/>
<rect x="30" y="13" width="1" height="1" fill="#1c1d1f"/>
<rect x="0" y="14" width="1" height="1" fill="#1c1d1f"/>
<rect x="1" y="14" width="1" height="1" fill="#b0b0b0"/>
<rect x="2" y="14" width="1" height="1" fill="#a8a6a7"/>
<rect x="3" y="14" width="1" height="1" fill="#a8a5a5"/>
<rect x="4" y="14" width="1" height="1" fill="#17181d"/>
<rect x="5" y="14" width="1" height="1" fill="#191b1d"/>
<rect x="6" y="14" width="1" height="1" fill="#a6a4a4"/>
<rect x="7" y="14" width="1" height="1" fill="#adabac"/>
<rect x="8" y="14" width="1" height="1" fill="#adabac"/>
<rect x="9" y="14" width="1" height="1" fill="#adabac"/>
<rect x="10" y="14" width="1" height="1" fill="#adabac"/>
<rect x="11" y="14" width="1" height="1" fill="#aba9aa"/>
<rect x="12" y="14" width="1" height="1" fill="#acaaab"/>
<rect x="13" y="14" width="1" height="1" fill="#acaaab"/>
<rect x="14" y="14" width="1" height="1" fill="#adabac"/>
<rect x="15" y="14" width="1" height="1" fill="#a4a2a2"/>
<rect x="16" y="14" width="1" height="1" fill="#2d2d2c"/>
<rect x="17" y="14" width="1" height="1" fill="#bdbbbd"/>
<rect x="18" y="14" width="1" height="1" fill="#c7c7c7"/>
<rect x="19" y="14" width="1" height="1" fill="#a4a2a3"/>
<rect x="20" y="14" width="1" height="1" fill="#aba9aa"/>
<rect x="21" y="14" width="1" height="1" fill="#a8a6a7"/>
<rect x="22" y="14" width="1" height="1" fill="#aaa8a9"/>
<rect x="23" y="14" width="1" height="1" fill="#aaa8a9"/>
<rect x="24" y="14" width="1" height="1" fill="#a7a5a6"/>
<rect x="25" y="14" width="1" height="1" fill="#a2a0a1"/>
<rect x="26" y="14" width="1" height="1" fill="#afafaf"/>
<rect x="27" y="14" width="1" height="1" fill="#050609"/>
<rect x="28" y="14" width="1" height="1" fill="#3d3d3d"/>
<rect x="29" y="14" width="1" height="1" fill="#1c1e1e"/>
<rect x="30" y="14" width="1" height="1" fill="#0e0e10"/>
<rect x="0" y="15" width="1" height="1" fill="#1c1d20"/>
<rect x="1" y="15" width="1" height="1" fill="#a8a6a7"/>
<rect x="2" y="15" width="1" height="1" fill="#aaa8a9"/>
<rect x="3" y="15" width="1" height="1" fill="#aca9aa"/>
<rect x="4" y="15" width="1" height="1" fill="#151618"/>
<rect x="5" y="15" width="1" height="1" fill="#1c1d1f"/>
<rect x="6" y="15" width="1" height="1" fill="#aeacad"/>
<rect x="7" y="15" width="1" height="1" fill="#aba9aa"/>
<rect x="8" y="15" width="1" height="1" fill="#adabac"/>
<rect x="9" y="15" width="1" height="1" fill="#adabac"/>
<rect x="10" y="15" width="1" height="1" fill="#adabac"/>
<rect x="11" y="15" width="1" height="1" fill="#adabac"/>
<rect x="12" y="15" width="1" height="1" fill="#adaaab"/>
<rect x="13" y="15" width="1" height="1" fill="#aeacad"/>
<rect x="14" y="15" width="1" height="1" fill="#a8a6a7"/>
<rect x="15" y="15" width="1" height="1" fill="#9f9d9e"/>
<rect x="16" y="15" width="1" height="1" fill="#16171b"/>
<rect x="17" y="15" width="1" height="1" fill="#aeacad"/>
<rect x="18" y="15" width="1" height="1" fill="#aba9aa"/>
<rect x="19" y="15" width="1" height="1" fill="#adabac"/>
<rect x="20" y="15" width="1" height="1" fill="#adabac"/>
<rect x="21" y="15" width="1" height="1" fill="#adabac"/>
<rect x="22" y="15" width="1" height="1" fill="#aeacad"/>
<rect x="23" y="15" width="1" height="1" fill="#adabac"/>
<rect x="24" y="15" width="1" height="1" fill="#acaaab"/>
<rect x="25" y="15" width="1" height="1" fill="#aeacad"/>
<rect x="26" y="15" width="1" height="1" fill="#a8a5a5"/>
<rect x="27" y="15" width="1" height="1" fill="#191b1f"/>
<rect x="28" y="15" width="1" height="1" fill="#545455"/>
<rect x="1" y="16" width="1" height="1" fill="#1c1d21"/>
<rect x="2" y="16" width="1" height="1" fill="#1f2024"/>
<rect x="3" y="16" width="1" height="1" fill="#a9a7a8"/>
<rect x="4" y="16" width="1" height="1" fill="#a9a7a8"/>
<rect x="5" y="16" width="1" height="1" fill="#aaa8a9"/>
<rect x="6" y="16" width="1" height="1" fill="#a9a7a8"/>
<rect x="7" y="16" width="1" height="1" fill="#aba9aa"/>
<rect x="8" y="16" width="1" height="1" fill="#acaaab"/>
<rect x="9" y="16" width="1" height="1" fill="#acaaab"/>
<rect x="10" y="16" width="1" height="1" fill="#adabac"/>
<rect x="11" y="16" width="1" height="1" fill="#acaaab"/>
<rect x="12" y="16" width="1" height="1" fill="#adabac"/>
<rect x="13" y="16" width="1" height="1" fill="#222223"/>
<rect x="14" y="16" width="1" height="1" fill="#1a1b1f"/>
<rect x="15" y="16" width="1" height="1" fill="#1e1f21"/>
<rect x="16" y="16" width="1" height="1" fill="#adabac"/>
<rect x="17" y="16" width="1" height="1" fill="#acaaab"/>
<rect x="18" y="16" width="1" height="1" fill="#adabac"/>
<rect x="19" y="16" width="1" height="1" fill="#acaaab"/>
<rect x="20" y="16" width="1" height="1" fill="#aeacad"/>
<rect x="21" y="16" width="1" height="1" fill="#aeacad"/>
<rect x="22" y="16" width="1" height="1" fill="#aeacad"/>
<rect x="23" y="16" width="1" height="1" fill="#aeacad"/>
<rect x="24" y="16" width="1" height="1" fill="#afadae"/>
<rect x="25" y="16" width="1" height="1" fill="#acaaab"/>
<rect x="26" y="16" width="1" height="1" fill="#aaa8a8"/>
<rect x="27" y="16" width="1" height="1" fill="#1c1d21"/>
<rect x="3" y="17" width="1" height="1" fill="#18191b"/>
<rect x="4" y="17" width="1" height="1" fill="#222325"/>
<rect x="5" y="17" width="1" height="1" fill="#19191b"/>
<rect x="6" y="17" width="1" height="1" fill="#1f1f21"/>
<rect x="7" y="17" width="1" height="1" fill="#202023"/>
<rect x="8" y="17" width="1" height="1" fill="#1d1d1f"/>
<rect x="9" y="17" width="1" height="1" fill="#1d1c22"/>
<rect x="10" y="17" width="1" height="1" fill="#1d1d1f"/>
<rect x="11" y="17" width="1" height="1" fill="#1e1f20"/>
<rect x="12" y="17" width="1" height="1" fill="#222225"/>
<rect x="13" y="17" width="1" height="1" fill="#313133"/>
<rect x="14" y="17" width="1" height="1" fill="#2f2d2f"/>
<rect x="15" y="17" width="1" height="1" fill="#3b3b3b"/>
<rect x="16" y="17" width="1" height="1" fill="#acaaab"/>
<rect x="17" y="17" width="1" height="1" fill="#adabac"/>
<rect x="18" y="17" width="1" height="1" fill="#aeacad"/>
<rect x="19" y="17" width="1" height="1" fill="#afadae"/>
<rect x="20" y="17" width="1" height="1" fill="#afadae"/>
<rect x="21" y="17" width="1" height="1" fill="#aeacad"/>
<rect x="22" y="17" width="1" height="1" fill="#afadae"/>
<rect x="23" y="17" width="1" height="1" fill="#afadae"/>
<rect x="24" y="17" width="1" height="1" fill="#aeacad"/>
<rect x="25" y="17" width="1" height="1" fill="#aeacad"/>
<rect x="26" y="17" width="1" height="1" fill="#b1afb0"/>
<rect x="27" y="17" width="1" height="1" fill="#1a1b1f"/>
<rect x="3" y="18" width="1" height="1" fill="#222227"/>
<rect x="4" y="18" width="1" height="1" fill="#1a1c20"/>
<rect x="5" y="18" width="1" height="1" fill="#1e2023"/>
<rect x="6" y="18" width="1" height="1" fill="#1d1e22"/>
<rect x="7" y="18" width="1" height="1" fill="#1a1b1f"/>
<rect x="8" y="18" width="1" height="1" fill="#1b1b23"/>
<rect x="9" y="18" width="1" height="1" fill="#1d1e22"/>
<rect x="10" y="18" width="1" height="1" fill="#1c1d21"/>
<rect x="11" y="18" width="1" height="1" fill="#1b1c20"/>
<rect x="12" y="18" width="1" height="1" fill="#1b1c20"/>
<rect x="13" y="18" width="1" height="1" fill="#d0cfd2"/>
<rect x="14" y="18" width="1" height="1" fill="#acaaab"/>
<rect x="15" y="18" width="1" height="1" fill="#aba9aa"/>
<rect x="16" y="18" width="1" height="1" fill="#acaaab"/>
<rect x="17" y="18" width="1" height="1" fill="#aeacad"/>
<rect x="18" y="18" width="1" height="1" fill="#aeacad"/>
<rect x="19" y="18" width="1" height="1" fill="#aeacad"/>
<rect x="20" y="18" width="1" height="1" fill="#afadae"/>
<rect x="21" y="18" width="1" height="1" fill="#afadae"/>
<rect x="22" y="18" width="1" height="1" fill="#afadae"/>
<rect x="23" y="18" width="1" height="1" fill="#afadae"/>
<rect x="24" y="18" width="1" height="1" fill="#afadae"/>
<rect x="25" y="18" width="1" height="1" fill="#afadae"/>
<rect x="26" y="18" width="1" height="1" fill="#acaaab"/>
<rect x="27" y="18" width="1" height="1" fill="#1c1f22"/>
<rect x="6" y="19" width="1" height="1" fill="#1d1e23"/>
<rect x="7" y="19" width="1" height="1" fill="#7b7b7b"/>
<rect x="8" y="19" width="1" height="1" fill="#7d7978"/>
<rect x="9" y="19" width="1" height="1" fill="#807c7b"/>
<rect x="10" y="19" width="1" height="1" fill="#92908f"/>
<rect x="11" y="19" width="1" height="1" fill="#aeacad"/>
<rect x="12" y="19" width="1" height="1" fill="#a8a6a7"/>
<rect x="13" y="19" width="1" height="1" fill="#adabac"/>
<rect x="14" y="19" width="1" height="1" fill="#aba9aa"/>
<rect x="15" y="19" width="1" height="1" fill="#acaaab"/>
<rect x="16" y="19" width="1" height="1" fill="#adabac"/>
<rect x="17" y="19" width="1" height="1" fill="#adabac"/>
<rect x="18" y="19" width="1" height="1" fill="#aeacad"/>
<rect x="19" y="19" width="1" height="1" fill="#aeacad"/>
<rect x="20" y="19" width="1" height="1" fill="#aeacad"/>
<rect x="21" y="19" width="1" height="1" fill="#afadae"/>
<rect x="22" y="19" width="1" height="1" fill="#afadae"/>
<rect x="23" y="19" width="1" height="1" fill="#b0aeaf"/>
<rect x="24" y="19" width="1" height="1" fill="#afadae"/>
<rect x="25" y="19" width="1" height="1" fill="#afadae"/>
<rect x="26" y="19" width="1" height="1" fill="#adabac"/>
<rect x="27" y="19" width="1" height="1" fill="#aaa8a9"/>
<rect x="28" y="19" width="1" height="1" fill="#1e1f24"/>
<rect x="29" y="19" width="1" height="1" fill="#08080a"/>
<rect x="6" y="20" width="1" height="1" fill="#1a1c21"/>
<rect x="7" y="20" width="1" height="1" fill="#797878"/>
<rect x="8" y="20" width="1" height="1" fill="#7c7875"/>
<rect x="9" y="20" width="1" height="1" fill="#7f7e7c"/>
<rect x="10" y="20" width="1" height="1" fill="#9e9d9c"/>
<rect x="11" y="20" width="1" height="1" fill="#acaaab"/>
<rect x="12" y="20" width="1" height="1" fill="#adabac"/>
<rect x="13" y="20" width="1" height="1" fill="#acaaab"/>
<rect x="14" y="20" width="1" height="1" fill="#adabac"/>
<rect x="15" y="20" width="1" height="1" fill="#adabac"/>
<rect x="16" y="20" width="1" height="1" fill="#afadae"/>
<rect x="17" y="20" width="1" height="1" fill="#adabac"/>
<rect x="18" y="20" width="1" height="1" fill="#aeacad"/>
<rect x="19" y="20" width="1" height="1" fill="#aeacad"/>
<rect x="20" y="20" width="1" height="1" fill="#aeacad"/>
<rect x="21" y="20" width="1" height="1" fill="#adabac"/>
<rect x="22" y="20" width="1" height="1" fill="#aeacad"/>
<rect x="23" y="20" width="1" height="1" fill="#aeacad"/>
<rect x="24" y="20" width="1" height="1" fill="#aeacad"/>
<rect x="25" y="20" width="1" height="1" fill="#aeacad"/>
<rect x="26" y="20" width="1" height="1" fill="#adabac"/>
<rect x="27" y="20" width="1" height="1" fill="#acaaab"/>
<rect x="28" y="20" width="1" height="1" fill="#141517"/>
<rect x="29" y="20" width="1" height="1" fill="#353539"/>
<rect x="6" y="21" width="1" height="1" fill="#191a1e"/>
<rect x="7" y="21" width="1" height="1" fill="#7e7d79"/>
<rect x="8" y="21" width="1" height="1" fill="#7a7774"/>
<rect x="9" y="21" width="1" height="1" fill="#aba8a9"/>
<rect x="10" y="21" width="1" height="1" fill="#acaaab"/>
<rect x="11" y="21" width="1" height="1" fill="#acaaab"/>
<rect x="12" y="21" width="1" height="1" fill="#aaa8a9"/>
<rect x="13" y="21" width="1" height="1" fill="#adabac"/>
<rect x="14" y="21" width="1" height="1" fill="#acaaab"/>
<rect x="15" y="21" width="1" height="1" fill="#aeacad"/>
<rect x="16" y="21" width="1" height="1" fill="#aba9aa"/>
<rect x="17" y="21" width="1" height="1" fill="#aeacad"/>
<rect x="18" y="21" width="1" height="1" fill="#acaaab"/>
<rect x="19" y="21" width="1" height="1" fill="#afadae"/>
<rect x="20" y="21" width="1" height="1" fill="#aeacad"/>
<rect x="21" y="21" width="1" height="1" fill="#adabac"/>
<rect x="22" y="21" width="1" height="1" fill="#acaaab"/>
<rect x="23" y="21" width="1" height="1" fill="#aeacad"/>
<rect x="24" y="21" width="1" height="1" fill="#aeacad"/>
<rect x="25" y="21" width="1" height="1" fill="#aeacad"/>
<rect x="26" y="21" width="1" height="1" fill="#aeacad"/>
<rect x="27" y="21" width="1" height="1" fill="#acaaab"/>
<rect x="28" y="21" width="1" height="1" fill="#1b1c20"/>
<rect x="29" y="21" width="1" height="1" fill="#1c1c29"/>
<rect x="4" y="22" width="1" height="1" fill="#1a1b1f"/>
<rect x="5" y="22" width="1" height="1" fill="#1b1b1f"/>
<rect x="6" y="22" width="1" height="1" fill="#b0aeaf"/>
<rect x="7" y="22" width="1" height="1" fill="#acaba9"/>
<rect x="8" y="22" width="1" height="1" fill="#aeacac"/>
<rect x="9" y="22" width="1" height="1" fill="#7d7c7a"/>
<rect x="10" y="22" width="1" height="1" fill="#848380"/>
<rect x="11" y="22" width="1" height="1" fill="#aba9aa"/>
<rect x="12" y="22" width="1" height="1" fill="#adabac"/>
<rect x="13" y="22" width="1" height="1" fill="#aba9aa"/>
<rect x="14" y="22" width="1" height="1" fill="#adabac"/>
<rect x="15" y="22" width="1" height="1" fill="#acaaab"/>
<rect x="16" y="22" width="1" height="1" fill="#aeacad"/>
<rect x="17" y="22" width="1" height="1" fill="#1f2022"/>
<rect x="18" y="22" width="1" height="1" fill="#1f2023"/>
<rect x="19" y="22" width="1" height="1" fill="#1f2022"/>
<rect x="20" y="22" width="1" height="1" fill="#212225"/>
<rect x="21" y="22" width="1" height="1" fill="#323232"/>
<rect x="22" y="22" width="1" height="1" fill="#adabac"/>
<rect x="23" y="22" width="1" height="1" fill="#adabac"/>
<rect x="24" y="22" width="1" height="1" fill="#adabac"/>
<rect x="25" y="22" width="1" height="1" fill="#aeacad"/>
<rect x="26" y="22" width="1" height="1" fill="#acaaab"/>
<rect x="27" y="22" width="1" height="1" fill="#aeacad"/>
<rect x="28" y="22" width="1" height="1" fill="#aaa8a9"/>
<rect x="29" y="22" width="1" height="1" fill="#4a494c"/>
<rect x="30" y="22" width="1" height="1" fill="#1a1b20"/>
<rect x="4" y="23" width="1" height="1" fill="#222325"/>
<rect x="5" y="23" width="1" height="1" fill="#232425"/>
<rect x="6" y="23" width="1" height="1" fill="#acaaab"/>
<rect x="7" y="23" width="1" height="1" fill="#acaaab"/>
<rect x="8" y="23" width="1" height="1" fill="#aeacad"/>
<rect x="9" y="23" width="1" height="1" fill="#8e8d8c"/>
<rect x="10" y="23" width="1" height="1" fill="#999999"/>
<rect x="11" y="23" width="1" height="1" fill="#bbbbbb"/>
<rect x="12" y="23" width="1" height="1" fill="#aaa8a9"/>
<rect x="13" y="23" width="1" height="1" fill="#adabac"/>
<rect x="14" y="23" width="1" height="1" fill="#acaaab"/>
<rect x="15" y="23" width="1" height="1" fill="#adabac"/>
<rect x="16" y="23" width="1" height="1" fill="#b4b2b4"/>
<rect x="17" y="23" width="1" height="1" fill="#1d1d1e"/>
<rect x="18" y="23" width="1" height="1" fill="#212122"/>
<rect x="19" y="23" width="1" height="1" fill="#1e2023"/>
<rect x="20" y="23" width="1" height="1" fill="#1c1d20"/>
<rect x="21" y="23" width="1" height="1" fill="#272729"/>
<rect x="22" y="23" width="1" height="1" fill="#b4b2b3"/>
<rect x="23" y="23" width="1" height="1" fill="#a8a6a7"/>
<rect x="24" y="23" width="1" height="1" fill="#aba9aa"/>
<rect x="25" y="23" width="1" height="1" fill="#adabac"/>
<rect x="26" y="23" width="1" height="1" fill="#acaaab"/>
<rect x="27" y="23" width="1" height="1" fill="#acaaab"/>
<rect x="28" y="23" width="1" height="1" fill="#acaaab"/>
<rect x="29" y="23" width="1" height="1" fill="#464647"/>
<rect x="30" y="23" width="1" height="1" fill="#1b1c20"/>
<rect x="2" y="24" width="1" height="1" fill="#2a2a2a"/>
<rect x="3" y="24" width="1" height="1" fill="#1d1e21"/>
<rect x="4" y="24" width="1" height="1" fill="#ababab"/>
<rect x="5" y="24" width="1" height="1" fill="#aba9aa"/>
<rect x="6" y="24" width="1" height="1" fill="#adabac"/>
<rect x="7" y="24" width="1" height="1" fill="#adabac"/>
<rect x="8" y="24" width="1" height="1" fill="#acaaab"/>
<rect x="9" y="24" width="1" height="1" fill="#1d2025"/>
<rect x="10" y="24" width="1" height="1" fill="#1c1e23"/>
<rect x="11" y="24" width="1" height="1" fill="#1b1c20"/>
<rect x="12" y="24" width="1" height="1" fill="#aaa8a9"/>
<rect x="13" y="24" width="1" height="1" fill="#acaaab"/>
<rect x="14" y="24" width="1" height="1" fill="#aaa8a9"/>
<rect x="15" y="24" width="1" height="1" fill="#adabac"/>
<rect x="16" y="24" width="1" height="1" fill="#1b1c21"/>
<rect x="17" y="24" width="1" height="1" fill="#7c7a7b"/>
<rect x="18" y="24" width="1" height="1" fill="#7a7675"/>
<rect x="19" y="24" width="1" height="1" fill="#7a7675"/>
<rect x="20" y="24" width="1" height="1" fill="#060607"/>
<rect x="21" y="24" width="1" height="1" fill="#1b1c20"/>
<rect x="22" y="24" width="1" height="1" fill="#1c1d21"/>
<rect x="23" y="24" width="1" height="1" fill="#1d1e22"/>
<rect x="24" y="24" width="1" height="1" fill="#030305"/>
<rect x="25" y="24" width="1" height="1" fill="#acaaab"/>
<rect x="26" y="24" width="1" height="1" fill="#aeacad"/>
<rect x="27" y="24" width="1" height="1" fill="#adabac"/>
<rect x="28" y="24" width="1" height="1" fill="#aba9aa"/>
<rect x="29" y="24" width="1" height="1" fill="#333334"/>
<rect x="30" y="24" width="1" height="1" fill="#191a1e"/>
<rect x="1" y="25" width="1" height="1" fill="#202124"/>
<rect x="2" y="25" width="1" height="1" fill="#2a2b2b"/>
<rect x="3" y="25" width="1" height="1" fill="#b1b1af"/>
<rect x="4" y="25" width="1" height="1" fill="#acacac"/>
<rect x="5" y="25" width="1" height="1" fill="#aeacad"/>
<rect x="6" y="25" width="1" height="1" fill="#adabac"/>
<rect x="7" y="25" width="1" height="1" fill="#aca9aa"/>
<rect x="8" y="25" width="1" height="1" fill="#201f24"/>
<rect x="11" y="25" width="1" height="1" fill="#1a1c20"/>
<rect x="12" y="25" width="1" height="1" fill="#adaaab"/>
<rect x="13" y="25" width="1" height="1" fill="#aba9aa"/>
<rect x="14" y="25" width="1" height="1" fill="#aba9aa"/>
<rect x="15" y="25" width="1" height="1" fill="#b8b6b7"/>
<rect x="16" y="25" width="1" height="1" fill="#18191d"/>
<rect x="17" y="25" width="1" height="1" fill="#7c7b79"/>
<rect x="18" y="25" width="1" height="1" fill="#7c7877"/>
<rect x="19" y="25" width="1" height="1" fill="#797573"/>
<rect x="20" y="25" width="1" height="1" fill="#171518"/>
<rect x="21" y="25" width="1" height="1" fill="#1c1b20"/>
<rect x="25" y="25" width="1" height="1" fill="#18191d"/>
<rect x="26" y="25" width="1" height="1" fill="#0a0b0b"/>
<rect x="27" y="25" width="1" height="1" fill="#aeabac"/>
<rect x="28" y="25" width="1" height="1" fill="#aca9aa"/>
<rect x="29" y="25" width="1" height="1" fill="#aaa7a8"/>
<rect x="30" y="25" width="1" height="1" fill="#d9d9d9"/>
<rect x="31" y="25" width="1" height="1" fill="#141414"/>
<rect x="1" y="26" width="1" height="1" fill="#1f2024"/>
<rect x="2" y="26" width="1" height="1" fill="#565859"/>
<rect x="3" y="26" width="1" height="1" fill="#a7a5a6"/>
<rect x="4" y="26" width="1" height="1" fill="#aeacad"/>
<rect x="5" y="26" width="1" height="1" fill="#acaaab"/>
<rect x="6" y="26" width="1" height="1" fill="#adabac"/>
<rect x="7" y="26" width="1" height="1" fill="#a8a6a7"/>
<rect x="8" y="26" width="1" height="1" fill="#131417"/>
<rect x="11" y="26" width="1" height="1" fill="#1a1b1f"/>
<rect x="12" y="26" width="1" height="1" fill="#adabac"/>
<rect x="13" y="26" width="1" height="1" fill="#aba9aa"/>
<rect x="14" y="26" width="1" height="1" fill="#aba9aa"/>
<rect x="15" y="26" width="1" height="1" fill="#bbbaba"/>
<rect x="16" y="26" width="1" height="1" fill="#1a1b1f"/>
<rect x="17" y="26" width="1" height="1" fill="#757271"/>
<rect x="18" y="26" width="1" height="1" fill="#787573"/>
<rect x="19" y="26" width="1" height="1" fill="#17181b"/>
<rect x="20" y="26" width="1" height="1" fill="#232323"/>
<rect x="24" y="26" width="1" height="1" fill="#404040"/>
<rect x="25" y="26" width="1" height="1" fill="#17181c"/>
<rect x="26" y="26" width="1" height="1" fill="#0a0a0b"/>
<rect x="27" y="26" width="1" height="1" fill="#a8a8a8"/>
<rect x="28" y="26" width="1" height="1" fill="#aeacad"/>
<rect x="29" y="26" width="1" height="1" fill="#aba9aa"/>
<rect x="30" y="26" width="1" height="1" fill="#a6a1a3"/>
<rect x="31" y="26" width="1" height="1" fill="#1c1d22"/>
<rect x="1" y="27" width="1" height="1" fill="#1b1c20"/>
<rect x="2" y="27" width="1" height="1" fill="#8d8d8d"/>
<rect x="3" y="27" width="1" height="1" fill="#acaaab"/>
<rect x="4" y="27" width="1" height="1" fill="#aba9aa"/>
<rect x="5" y="27" width="1" height="1" fill="#acaaab"/>
<rect x="6" y="27" width="1" height="1" fill="#020204"/>
<rect x="7" y="27" width="1" height="1" fill="#1e2024"/>
<rect x="11" y="27" width="1" height="1" fill="#191a1e"/>
<rect x="12" y="27" width="1" height="1" fill="#afadae"/>
<rect x="13" y="27" width="1" height="1" fill="#aba9aa"/>
<rect x="14" y="27" width="1" height="1" fill="#aba9aa"/>
<rect x="15" y="27" width="1" height="1" fill="#c0c0c0"/>
<rect x="16" y="27" width="1" height="1" fill="#191b20"/>
<rect x="17" y="27" width="1" height="1" fill="#8d8b8a"/>
<rect x="18" y="27" width="1" height="1" fill="#8b8786"/>
<rect x="19" y="27" width="1" height="1" fill="#1e1f23"/>
<rect x="20" y="27" width="1" height="1" fill="#2c2c2c"/>
<rect x="27" y="27" width="1" height="1" fill="#1e1f23"/>
<rect x="28" y="27" width="1" height="1" fill="#abaaa8"/>
<rect x="29" y="27" width="1" height="1" fill="#aaa8a9"/>
<rect x="30" y="27" width="1" height="1" fill="#adabac"/>
<rect x="31" y="27" width="1" height="1" fill="#1c1d21"/>
<rect x="2" y="28" width="1" height="1" fill="#29292b"/>
<rect x="3" y="28" width="1" height="1" fill="#1e1f21"/>
<rect x="4" y="28" width="1" height="1" fill="#222326"/>
<rect x="5" y="28" width="1" height="1" fill="#1b1b1f"/>
<rect x="11" y="28" width="1" height="1" fill="#1d1e22"/>
<rect x="12" y="28" width="1" height="1" fill="#acaaab"/>
<rect x="13" y="28" width="1" height="1" fill="#aba9aa"/>
<rect x="14" y="28" width="1" height="1" fill="#141416"/>
<rect x="15" y="28" width="1" height="1" fill="#17181b"/>
<rect x="16" y="28" width="1" height="1" fill="#1c1d21"/>
<rect x="17" y="28" width="1" height="1" fill="#16171a"/>
<rect x="18" y="28" width="1" height="1" fill="#222326"/>
<rect x="27" y="28" width="1" height="1" fill="#1d1e22"/>
<rect x="28" y="28" width="1" height="1" fill="#a9a7a8"/>
<rect x="29" y="28" width="1" height="1" fill="#a9a7a8"/>
<rect x="30" y="28" width="1" height="1" fill="#a3a2a1"/>
<rect x="31" y="28" width="1" height="1" fill="#1b1c21"/>
<rect x="2" y="29" width="1" height="1" fill="#141415"/>
<rect x="3" y="29" width="1" height="1" fill="#202326"/>
<rect x="4" y="29" width="1" height="1" fill="#1d1f22"/>
<rect x="5" y="29" width="1" height="1" fill="#202125"/>
<rect x="11" y="29" width="1" height="1" fill="#17171b"/>
<rect x="12" y="29" width="1" height="1" fill="#cacaca"/>
<rect x="13" y="29" width="1" height="1" fill="#c0bebf"/>
<rect x="14" y="29" width="1" height="1" fill="#151619"/>
<rect x="16" y="29" width="1" height="1" fill="#45464a"/>
<rect x="17" y="29" width="1" height="1" fill="#202226"/>
<rect x="18" y="29" width="1" height="1" fill="#1a1a1f"/>
<rect x="28" y="29" width="1" height="1" fill="#191a1e"/>
<rect x="29" y="29" width="1" height="1" fill="#1c1d21"/>
<rect x="30" y="29" width="1" height="1" fill="#222126"/>
<rect x="12" y="30" width="1" height="1" fill="#1c1c23"/>
<rect x="13" y="30" width="1" height="1" fill="#1e1f23"/>
<rect x="14" y="30" width="1" height="1" fill="#212427"/>
<rect x="28" y="30" width="1" height="1" fill="#5a5a5b"/>
<rect x="29" y="30" width="1" height="1" fill="#353539"/>
<rect x="30" y="30" width="1" height="1" fill="#222224"/>
</svg>